<svg width="30" height="30" viewBox="0 0 30 30" fill="none" xmlns="http://www.w3.org/2000/svg">
<path d="M30 21.75C30 22.32 29.65 22.815 29.1167 23.07L15.95 29.73C15.6833 29.91 15.35 30 15 30C14.65 30 14.3167 29.91 14.05 29.73L0.883333 23.07C0.35 22.815 0 22.32 0 21.75V8.25C0 7.68 0.35 7.185 0.883333 6.93L14.05 0.27C14.3167 0.0900001 14.65 0 15 0C15.35 0 15.6833 0.0900001 15.95 0.27L29.1167 6.93C29.65 7.185 30 7.68 30 8.25V21.75ZM15 3.225L11.85 4.83L21.6667 9.915L24.9333 8.25L15 3.225ZM5.06667 8.25L15 13.275L18.2667 11.625L8.46667 6.525L5.06667 8.25ZM3.33333 20.865L13.3333 25.935V15.87L3.33333 10.815V20.865ZM26.6667 20.865V10.815L16.6667 15.87V25.935L26.6667 20.865Z" fill="white"/>
</svg>
